<?xml version="1.0" encoding="UTF-8"?>
<svg width="24px" height="18px" viewBox="0 0 24 18" version="1.1" xmlns="http://www.w3.org/2000/svg" xmlns:xlink="http://www.w3.org/1999/xlink">
    <!-- Generator: sketchtool 54.1 (76490) - https://sketchapp.com -->
    <title>A5C8EB48-B8E5-4157-981A-19F8849F5DD3</title>
    <desc>Created with sketchtool.</desc>
    <g id="Hosted-Window" stroke="none" stroke-width="1" fill="none" fill-rule="evenodd">
        <g id="All-/-Collapsed-/-Mobile" transform="translate(-268.000000, -361.000000)" fill="#00005E">
            <g id="Group-5" transform="translate(12.000000, 281.000000)">
                <g id="Group-4" transform="translate(12.000000, 56.000000)">
                    <g id="Card">
                        <g id="icon/mobile/credit_card" transform="translate(240.000000, 17.000000)">
                            <g id="credit_card" transform="translate(3.000000, 7.000000)">
                                <path d="M21.82,0 C23.6564748,0.0970418511 25.0737153,1.65244106 25,3.49 L25,14.49 C25.0850109,16.3351999 23.6646086,17.9030024 21.82,18 L4.18,18 C2.3435252,17.9029581 0.92628466,16.3475589 1,14.51 L1,3.51 C0.914989109,1.66480011 2.33539138,0.0969976006 4.18,0 L21.82,0 Z M4.18,2 C3.44710568,2.10842948 2.92806236,2.77262899 3,3.51 L3,5 L23,5 L23,3.51 C23.0719376,2.77262899 22.5528943,2.10842948 21.82,2 L4.18,2 Z M21.82,16 C22.5528943,15.8915705 23.0719376,15.227371 23,14.49 L23,6 L3,6 L3,14.49 C2.92806236,15.227371 3.44710568,15.8915705 4.18,16 L21.82,16 Z M14.5,14 C13.6715729,14 13,13.3284271 13,12.5 C13,11.6715729 13.6715729,11 14.5,11 C15.3284271,11 16,11.6715729 16,12.5 C16,13.3284271 15.3284271,14 14.5,14 Z M19.5,14 C18.6715729,14 18,13.3284271 18,12.5 C18,11.6715729 18.6715729,11 19.5,11 C20.3284271,11 21,11.6715729 21,12.5 C21,13.3284271 20.3284271,14 19.5,14 Z" id="Combined-Shape"></path>
                            </g>
                        </g>
                    </g>
                </g>
            </g>
        </g>
    </g>
</svg>