<?xml version="1.0" encoding="UTF-8"?>
<svg width="154px" height="16px" viewBox="0 0 154 16" version="1.1" xmlns="http://www.w3.org/2000/svg" xmlns:xlink="http://www.w3.org/1999/xlink">
    <!-- Generator: sketchtool 54.1 (76490) - https://sketchapp.com -->
    <title>CC3D927F-0EA7-4762-B970-377D0F985EFC</title>
    <desc>Created with sketchtool.</desc>
    <g id="Hosted-Window" stroke="none" stroke-width="1" fill="none" fill-rule="evenodd">
        <g id="All-/-Collapsed-/-Mobile" transform="translate(-13.000000, -87.000000)" fill="#FFFFFF" fill-rule="nonzero">
            <g id="White" transform="translate(13.000000, 87.000000)">
                <path d="M69.511892,9.37040532 C69.4064912,11.3181862 67.7200768,12.7921826 65.6647592,12.5816116 C64.1364462,12.3710408 62.8716355,11.160258 62.7135341,9.58097623 C62.5027324,7.5279099 64.0837458,5.79069991 66.0863629,5.79069991 C67.8781782,5.79069991 69.4064912,7.21205353 69.4591916,9.00190624 L69.4591916,9.37040532 L69.511892,9.37040532 Z M65.6120588,3.31649178 C62.6608336,3.52706269 60.3947144,5.89598537 60.1839127,8.79133534 C59.9731108,12.2131126 62.6608336,15.0558198 66.0863629,15.0558198 C67.2984732,15.0558198 68.9848876,14.4241071 69.7226939,13.1606816 L69.7226939,14.8978916 L71.9888132,14.8978916 L71.9888132,9.26511988 C71.9888132,5.63277174 69.0375881,3.05327815 65.6120588,3.31649178 L65.6120588,3.31649178 Z" id="Shape"></path>
                <path d="M49.8546246,8.94926352 C49.8546246,7.73848081 50.5924308,6.31712719 52.1734444,5.68541448 C53.9652597,5.00105903 55.5462731,5.89598537 56.231379,7.15941081 L49.8546246,8.94926352 Z M53.1747528,3.26384904 C50.0654264,3.3691345 47.430404,5.7380572 47.430404,9.21247715 C47.430404,12.3710408 50.012726,15.0558198 53.3328543,15.0558198 C55.651674,15.0558198 57.9177932,13.6871089 58.813701,11.4234717 L56.5475817,10.7391162 C56.1259779,11.6866853 55.1246696,12.4763262 54.0179601,12.6868971 C52.4369465,13.0027535 50.961334,12.0025416 50.3816292,10.8970444 L59.2353045,8.47547898 C58.8664014,6.26448445 56.9164848,3.21120632 53.1747528,3.26384904 L53.1747528,3.26384904 Z" id="Shape"></path>
                <path d="M33.7282872,5.68541448 L33.7282872,3.26384904 C31.5148684,3.26384904 30.7243617,4.36934631 30.408159,4.94841629 L30.408159,3.63234813 L27.8785374,3.63234813 L27.8785374,9.05454897 L27.8785374,14.8978916 L30.4608594,14.8978916 C30.4608594,11.4234717 30.4608594,11.4761144 30.4608594,9.37040532 C30.4608594,6.79091173 31.9364719,5.79069991 33.7282872,5.68541448" id="Path"></path>
                <polygon id="Path" points="10.4346889 10.3706171 2.68772288 1.31606816 0.0527004488 1.31606816 0.0527004488 14.8978916 2.79312378 14.8978916 2.79312378 5.79069991 10.5927902 14.8978916 13.0170109 14.8978916 13.0170109 1.31606816 10.4346889 1.31606816"></polygon>
                <path d="M43.3197689,9.37040532 C43.214368,11.3181862 41.5279538,12.7921826 39.4726362,12.5816116 C37.9443232,12.3710408 36.6795124,11.160258 36.5214111,9.58097623 C36.3106092,7.5279099 37.8916228,5.79069991 39.8942398,5.79069991 C41.6860551,5.79069991 43.214368,7.21205353 43.2670685,9.00190624 L43.2670685,9.37040532 L43.3197689,9.37040532 Z M45.79669,0.105285453 L43.3724695,0.105285453 L43.3724695,4.52727449 C42.7927645,3.79027632 41.0009492,3.15856359 39.4199358,3.31649178 C36.5214111,3.52706269 34.2025912,5.89598537 33.9917895,8.79133534 C33.7809876,12.2131126 36.4687107,15.0558198 39.8942398,15.0558198 C41.1590506,15.0558198 42.8981653,14.4767498 43.5305708,13.3712525 L43.5305708,14.8978916 L45.79669,14.8978916 L45.79669,9.26511988 C45.79669,9.21247715 45.79669,9.21247715 45.79669,9.15983443 C45.79669,9.10719169 45.79669,9.10719169 45.79669,9.05454897 L45.79669,0.105285453 L45.79669,0.105285453 Z" id="Shape"></path>
                <path d="M20.4477742,12.5816116 C18.550558,12.5816116 17.0749454,11.0549726 17.0749454,9.21247715 C17.0749454,7.31733899 18.6032585,5.84334265 20.4477742,5.84334265 C22.3449903,5.84334265 23.8206029,7.36998173 23.8206029,9.21247715 C23.8206029,11.0549726 22.2922899,12.5816116 20.4477742,12.5816116 M20.4477742,3.26384904 C17.1803463,3.26384904 14.5453239,5.89598537 14.5453239,9.15983443 C14.5453239,12.4236835 17.1803463,15.0558198 20.4477742,15.0558198 C23.715202,15.0558198 26.3502244,12.4236835 26.3502244,9.15983443 C26.3502244,5.89598537 23.715202,3.26384904 20.4477742,3.26384904" id="Shape"></path>
                <path d="M86.3760356,15.8454607 C82.3181011,15.8454607 79.5776779,13.2133244 79.5776779,8.10697989 C79.5776779,3.00063541 82.3181011,0.368499086 86.3760356,0.368499086 C88.2205514,0.368499086 89.8542654,0.894926352 90.9082742,2.00042361 L89.8542654,3.3691345 C89.1164591,2.63213633 87.9570491,2.05306633 86.4287361,2.05306633 C82.8451055,2.05306633 81.5275944,5.00105903 81.5275944,8.10697989 C81.5275944,11.2129008 82.8451055,14.1608934 86.3760356,14.1608934 C88.0097497,14.1608934 89.1164591,13.476538 89.9596662,12.5289689 L91.1190761,13.6871089 C90.1177675,15.1611053 88.3786528,15.8454607 86.3760356,15.8454607" id="Path"></path>
                <path d="M100.499756,10.0547608 C100.499756,7.15941081 99.2349451,5.84334265 97.337729,5.84334265 C95.3878125,5.84334265 94.175702,7.21205353 94.175702,10.0547608 C94.175702,12.897468 95.4405129,14.2661789 97.337729,14.2661789 C99.2349451,14.3188216 100.499756,12.9501107 100.499756,10.0547608 M92.2784859,10.0547608 C92.2784859,6.05391356 94.4919047,4.26406086 97.337729,4.26406086 C100.183553,4.26406086 102.396972,6.05391356 102.396972,10.0547608 C102.396972,14.055608 100.183553,15.8454607 97.337729,15.8454607 C94.4919047,15.8454607 92.2784859,14.055608 92.2784859,10.0547608" id="Shape"></path>
                <path d="M114.359974,14.2661789 L114.359974,15.5822471 C114.149172,15.6875325 113.88567,15.6875325 113.569467,15.6875325 C112.199256,15.6875325 111.51415,14.8452489 111.51415,13.2133244 L111.51415,8.58076443 C111.51415,7.10676808 110.881744,5.84334265 109.14263,5.84334265 C107.350814,5.84334265 106.349506,7.10676808 106.349506,8.63340715 L106.349506,15.6348898 L104.50499,15.6348898 L104.50499,4.5799172 L106.244105,4.5799172 L106.244105,6.21184173 C106.613008,5.36955811 107.614317,4.31670358 109.511533,4.31670358 C111.883053,4.31670358 113.358666,5.84334265 113.358666,8.3175508 L113.358666,13.1606816 C113.358666,14.0029653 113.622168,14.3188216 114.359974,14.2661789" id="Path"></path>
                <path d="M126.059474,14.2661789 L126.059474,15.5822471 C125.848672,15.6875325 125.58517,15.6875325 125.268967,15.6875325 C123.898755,15.6875325 123.213649,14.8452489 123.213649,13.2133244 L123.213649,8.58076443 C123.213649,7.10676808 122.581244,5.84334265 120.842129,5.84334265 C119.050314,5.84334265 118.049005,7.10676808 118.049005,8.63340715 L118.049005,15.6348898 L116.20449,15.6348898 L116.20449,4.5799172 L117.943604,4.5799172 L117.943604,6.21184173 C118.312508,5.36955811 119.313816,4.31670358 121.211032,4.31670358 C123.582553,4.31670358 125.058165,5.84334265 125.058165,8.3175508 L125.058165,13.1606816 C125.058165,14.0029653 125.321667,14.3188216 126.059474,14.2661789" id="Path"></path>
                <path d="M129.063399,9.42304806 C129.695805,9.52833351 130.433611,9.63361897 131.171417,9.63361897 C133.701039,9.63361897 134.544246,8.84397806 134.544246,7.63319535 C134.544246,6.5276981 133.701039,5.79069991 132.330827,5.79069991 C130.591712,5.79069991 129.221501,6.9488399 129.063399,9.42304806 L129.063399,9.42304806 Z M136.546863,14.2135362 C135.598255,15.3190334 134.069942,15.8454607 132.541629,15.8454607 C129.537703,15.8454607 127.271584,14.055608 127.271584,10.1600462 C127.271584,6.10655628 129.748505,4.31670358 132.436228,4.31670358 C134.807748,4.31670358 136.336061,5.68541448 136.336061,7.63319535 C136.336061,9.7389044 134.702347,10.9496871 131.434919,10.9496871 C130.697113,10.9496871 129.801206,10.8970444 129.063399,10.7391162 C129.274201,13.1606816 130.697113,14.2661789 132.64703,14.2661789 C133.753739,14.2661789 134.755048,13.8976798 135.598255,13.0553962 L136.546863,14.2135362 Z" id="Shape"></path>
                <path d="M143.029018,15.8454607 C140.183194,15.8454607 137.864374,14.055608 137.864374,10.0547608 C137.864374,6.05391356 140.235894,4.26406086 143.081719,4.26406086 C144.662732,4.26406086 145.822142,4.7378454 146.612649,5.58012902 L145.61134,6.79091173 C144.978935,6.15919902 144.188428,5.84334265 143.134419,5.84334265 C141.131802,5.84334265 139.70889,7.21205353 139.70889,10.0547608 C139.70889,12.9501107 141.131802,14.2661789 143.081719,14.2661789 C144.241128,14.2661789 144.978935,13.8450371 145.664041,13.1080389 L146.71805,14.1608934 C146.138345,15.0031771 144.978935,15.8454607 143.029018,15.8454607" id="Path"></path>
                <path d="M149.353072,12.6342544 L149.353072,5.94862811 L147.508556,5.94862811 L147.508556,4.52727449 L149.353072,4.52727449 L149.353072,1.5792818 L151.197588,1.5792818 L151.197588,4.52727449 L153.83261,4.52727449 L153.83261,5.94862811 L151.197588,5.94862811 L151.197588,12.2131126 C151.197588,13.5291807 151.566491,14.1608934 152.989403,14.1608934 C153.252905,14.1608934 153.516408,14.1608934 153.83261,14.055608 L153.83261,15.4769616 C153.516408,15.5822471 153.042103,15.6875325 152.515099,15.6875325 C150.196279,15.7401752 149.353072,14.5820353 149.353072,12.6342544" id="Path"></path>
            </g>
        </g>
    </g>
</svg>