<?xml version="1.0" encoding="UTF-8"?>
<svg width="12px" height="16px" viewBox="0 0 12 16" version="1.1" xmlns="http://www.w3.org/2000/svg" xmlns:xlink="http://www.w3.org/1999/xlink">
    <!-- Generator: sketchtool 54.1 (76490) - https://sketchapp.com -->
    <title>D005A077-C30B-4E1D-95C4-D157F9C07361</title>
    <desc>Created with sketchtool.</desc>
    <g id="Hosted-Window" stroke="none" stroke-width="1" fill="none" fill-rule="evenodd">
        <g id="All-/-Card-/-Mobile" transform="translate(-42.000000, -872.000000)" fill="#5A575C">
            <g id="Group-7" transform="translate(24.000000, 808.000000)">
                <g id="Group-5" transform="translate(16.000000, 64.000000)">
                    <g id="icon/16/block_card">
                        <g id="block_card" transform="translate(2.000000, 0.000000)">
                            <path d="M10.18,6 C11.1828857,6.00546544 11.9945346,6.81711434 12,7.82 L12,11.08 C12.0160116,12.368981 11.5192708,13.6115192 10.6190752,14.5342197 C9.71887954,15.4569202 8.48898346,15.9841849 7.2,16 L4.8,16 C3.51101654,15.9841849 2.28112046,15.4569202 1.38092482,14.5342197 C0.480729168,13.6115192 -0.0160115918,12.368981 1.14864173e-14,11.08 L1.14864173e-14,7.8 C-0.00267908814,7.32179404 0.186102791,6.86239875 0.524250771,6.52425077 C0.862398752,6.18610279 1.32179404,5.99732091 1.8,6 L3,6 L3,3 C3,1.34314575 4.34314575,-1.01453063e-16 6,0 C7.65685425,1.01453063e-16 9,1.34314575 9,3 L9,6 L10.18,6 Z M5,3 L5,6 L7,6 L7,3 C7,2.44771525 6.55228475,2 6,2 C5.44771525,2 5,2.44771525 5,3 Z M10,11.12 L10.0000209,8 L2,8 L2,11.08 C1.97204964,12.6575075 3.22270826,13.9617658 4.8,14 L7.2,14 C8.76154888,13.9619133 10.005907,12.6820021 10,11.12 Z M6,12.5 C5.17157288,12.5 4.5,11.8284271 4.5,11 C4.5,10.1715729 5.17157288,9.5 6,9.5 C6.82842712,9.5 7.5,10.1715729 7.5,11 C7.5,11.8284271 6.82842712,12.5 6,12.5 Z" id="Combined-Shape"></path>
                        </g>
                    </g>
                </g>
            </g>
        </g>
    </g>
</svg>